<svg width="24" height="24" viewBox="0 0 24 24" fill="none" xmlns="http://www.w3.org/2000/svg">
<g clip-path="url(#clip0_54_632)">
<path fill-rule="evenodd" clip-rule="evenodd" d="M7.95 5C5.75737 5 4 6.76677 4 9.09537C4 10.5272 4.61677 11.8997 5.8923 13.5049C7.18011 15.1256 9.0402 16.8645 11.3774 19.0461L11.3788 19.0474L12.0026 19.632L12.6219 19.0561L12.6228 19.0552C14.9597 16.8692 16.8196 15.1282 18.1075 13.5064C19.3832 11.8997 20 10.5272 20 9.09537C20 6.76677 18.2426 5 16.05 5C14.7978 5 13.5718 5.60507 12.7705 6.57366C12.5805 6.8033 12.298 6.93624 12 6.93624C11.702 6.93624 11.4195 6.8033 11.2295 6.57366C10.4282 5.60507 9.20224 5 7.95 5ZM2 9.09537C2 5.71716 4.59863 3 7.95 3C9.45204 3 10.8904 3.57193 12 4.51761C13.1096 3.57193 14.548 3 16.05 3C19.4014 3 22 5.71716 22 9.09537C22 11.1655 21.0868 12.9706 19.6738 14.7501C18.2899 16.4928 16.3336 18.3227 14.0711 20.439L13.9881 20.5167L13.986 20.5187L12.681 21.7323C12.2961 22.0902 11.6998 22.0891 11.3162 21.7297L10.0126 20.5081L9.95204 20.4516C7.67986 18.3307 5.71505 16.4967 4.32645 14.7492C2.91323 12.9706 2 11.1655 2 9.09537Z" fill="#292C32"/>
</g>
<defs>
<clipPath id="clip0_54_632">
<rect width="24" height="24" fill="white"/>
</clipPath>
</defs>
</svg>
