<svg width="24" height="24" viewBox="0 0 24 24" fill="none" xmlns="http://www.w3.org/2000/svg">
<path fill-rule="evenodd" clip-rule="evenodd" d="M3 2C2.44772 2 2 2.44772 2 3C2 3.55228 2.44772 4 3 4H3.85944C4.36376 4 4.78916 4.37554 4.85171 4.87597L6.16373 15.3721C6.35139 16.8734 7.62759 18 9.14056 18H18C18.5523 18 19 17.5523 19 17C19 16.4477 18.5523 16 18 16H9.14056C8.63624 16 8.21084 15.6245 8.14829 15.124L8.13278 15H18.2344C19.7474 15 21.0236 13.8734 21.2113 12.3721L21.7113 8.3721C21.9351 6.58155 20.5389 5 18.7344 5H6.88278L6.83627 4.6279C6.64861 3.12661 5.37241 2 3.85944 2H3ZM7.13279 7L7.88279 13H18.2344C18.7388 13 19.1642 12.6245 19.2267 12.124L19.7267 8.12403C19.8013 7.52718 19.3359 7 18.7344 7H7.13279Z" fill="#292C32"/>
<path d="M11 20.5C11 21.3284 10.3284 22 9.5 22C8.67157 22 8 21.3284 8 20.5C8 19.6716 8.67157 19 9.5 19C10.3284 19 11 19.6716 11 20.5Z" fill="#292C32"/>
<path d="M16.5 22C17.3284 22 18 21.3284 18 20.5C18 19.6716 17.3284 19 16.5 19C15.6716 19 15 19.6716 15 20.5C15 21.3284 15.6716 22 16.5 22Z" fill="#292C32"/>
</svg>
