<svg width="24" height="24" viewBox="0 0 24 24" fill="none" xmlns="http://www.w3.org/2000/svg">
<path fill-rule="evenodd" clip-rule="evenodd" d="M12 2C9.23858 2 7 4.23858 7 7C7 9.76142 9.23858 12 12 12C14.7614 12 17 9.76142 17 7C17 4.23858 14.7614 2 12 2ZM9 7C9 5.34315 10.3431 4 12 4C13.6569 4 15 5.34315 15 7C15 8.65685 13.6569 10 12 10C10.3431 10 9 8.65685 9 7Z" fill="#292C32"/>
<path fill-rule="evenodd" clip-rule="evenodd" d="M12 13.5C7.5502 13.5 5.07689 15.0054 3.93312 16.0093C3.22723 16.6288 3 17.4996 3 18.2447C3 20.3187 4.68132 22 6.75534 22H17.2447C19.3187 22 21 20.3187 21 18.2447C21 17.4996 20.7728 16.6288 20.0669 16.0093C18.9231 15.0054 16.4498 13.5 12 13.5ZM5.25244 17.5124C6.03934 16.8217 8.04626 15.5 12 15.5C15.9537 15.5 17.9607 16.8217 18.7476 17.5124C18.8856 17.6335 19 17.8668 19 18.2447C19 19.2141 18.2141 20 17.2447 20H6.75534C5.78589 20 5 19.2141 5 18.2447C5 17.8668 5.11441 17.6335 5.25244 17.5124Z" fill="#292C32"/>
</svg>
